HIERARCHY
ROOT hip
{
  OFFSET 0 0 0
  CHANNELS 6 Xposition Yposition Zposition Zrotation Yrotation Xrotation
  JOINT abdomen
  {
    OFFSET 0 20.6881 -0.73152
    CHANNELS 3 Zrotation Xrotation Yrotation
    JOINT chest
    {
      OFFSET 0 11.7043 -0.48768
      CHANNELS 3 Zrotation Xrotation Yrotation
      JOINT neck
      {
        OFFSET 0 22.1894 -2.19456
        CHANNELS 3 Zrotation Xrotation Yrotation
        JOINT head
        {
          OFFSET -0.24384 7.07133 1.2192
          CHANNELS 3 Zrotation Xrotation Yrotation
          JOINT leftEye
          {
            OFFSET 4.14528 8.04674 8.04672
            CHANNELS 3 Zrotation Xrotation Yrotation
            End Site
            {
              OFFSET 1 0 0
            }
          }
          JOINT rightEye
          {
            OFFSET -3.6576 8.04674 8.04672
            CHANNELS 3 Zrotation Xrotation Yrotation
            End Site
            {
              OFFSET 1 0 0
            }
          }
        }
      }
      JOINT rCollar
      {
        OFFSET -2.68224 19.2634 -4.8768
        CHANNELS 3 Zrotation Xrotation Yrotation
        JOINT rShldr
        {
          OFFSET -8.77824 -1.95073 1.46304
          CHANNELS 3 Zrotation Xrotation Yrotation
          JOINT rForeArm
          {
            OFFSET -28.1742 -1.7115 0.48768
            CHANNELS 3 Zrotation Xrotation Yrotation
            JOINT rHand
            {
              OFFSET -22.5879 0.773209 7.07136
              CHANNELS 3 Zrotation Xrotation Yrotation
              JOINT rThumb1
              {
                OFFSET -1.2192 -0.487915 3.41376
                CHANNELS 3 Zrotation Xrotation Yrotation
                JOINT rThumb2
                {
                  OFFSET -3.37035 -0.52449 3.41376
                  CHANNELS 3 Zrotation Xrotation Yrotation
                  End Site
                  {
                    OFFSET -1.78271 -1.18214 1.43049
                  }
                }
              }
              JOINT rIndex1
              {
                OFFSET -7.75947 0.938293 5.60832
                CHANNELS 3 Zrotation Xrotation Yrotation
                JOINT rIndex2
                {
                  OFFSET -2.54057 -0.884171 1.56538
                  CHANNELS 3 Zrotation Xrotation Yrotation
                  End Site
                  {
                    OFFSET -1.62519 -0.234802 1.16502
                  }
                }
              }
              JOINT rMid1
              {
                OFFSET -8.24714 1.18213 3.41376
                CHANNELS 3 Zrotation Xrotation Yrotation
                JOINT rMid2
                {
                  OFFSET -3.10165 -0.590103 1.0647
                  CHANNELS 3 Zrotation Xrotation Yrotation
                  End Site
                  {
                    OFFSET -2.48547 -0.328903 0.83742
                  }
                }
              }
              JOINT rRing1
              {
                OFFSET -8.82822 0.546677 1.51678
                CHANNELS 3 Zrotation Xrotation Yrotation
                JOINT rRing2
                {
                  OFFSET -2.60934 -0.819778 -0.0198488
                  CHANNELS 3 Zrotation Xrotation Yrotation
                  End Site
                  {
                    OFFSET -2.33842 -0.294052 0.168128
                  }
                }
              }
              JOINT rPinky1
              {
                OFFSET -8.27202 -0.0477905 -0.4584
                CHANNELS 3 Zrotation Xrotation Yrotation
                JOINT rPinky2
                {
                  OFFSET -1.82734 -0.647385 -0.700984
                  CHANNELS 3 Zrotation Xrotation Yrotation
                  End Site
                  {
                    OFFSET -1.69225 -0.51767 -0.607171
                  }
                }
              }
            }
          }
        }
      }
      JOINT lCollar
      {
        OFFSET 2.68224 19.2634 -4.8768
        CHANNELS 3 Zrotation Xrotation Yrotation
        JOINT lShldr
        {
          OFFSET 8.77824 -1.95073 1.46304
          CHANNELS 3 Zrotation Xrotation Yrotation
          JOINT lForeArm
          {
            OFFSET 28.1742 -1.7115 0.48768
            CHANNELS 3 Zrotation Xrotation Yrotation
            JOINT lHand
            {
              OFFSET 22.5879 0.773209 7.07136
              CHANNELS 3 Zrotation Xrotation Yrotation
              JOINT lThumb1
              {
                OFFSET 1.2192 -0.487915 3.41376
                CHANNELS 3 Zrotation Xrotation Yrotation
                JOINT lThumb2
                {
                  OFFSET 3.37035 -0.52449 3.41376
                  CHANNELS 3 Zrotation Xrotation Yrotation
                  End Site
                  {
                    OFFSET 1.78271 -1.18214 1.43049
                  }
                }
              }
              JOINT lIndex1
              {
                OFFSET 7.75947 0.938293 5.60832
                CHANNELS 3 Zrotation Xrotation Yrotation
                JOINT lIndex2
                {
                  OFFSET 2.54057 -0.884171 1.56538
                  CHANNELS 3 Zrotation Xrotation Yrotation
                  End Site
                  {
                    OFFSET 1.62519 -0.234802 1.16502
                  }
                }
              }
              JOINT lMid1
              {
                OFFSET 8.24714 1.18213 3.41376
                CHANNELS 3 Zrotation Xrotation Yrotation
                JOINT lMid2
                {
                  OFFSET 3.10165 -0.590103 1.0647
                  CHANNELS 3 Zrotation Xrotation Yrotation
                  End Site
                  {
                    OFFSET 2.48547 -0.328903 0.83742
                  }
                }
              }
              JOINT lRing1
              {
                OFFSET 8.82822 0.546677 1.51678
                CHANNELS 3 Zrotation Xrotation Yrotation
                JOINT lRing2
                {
                  OFFSET 2.60934 -0.819778 -0.0198488
                  CHANNELS 3 Zrotation Xrotation Yrotation
                  End Site
                  {
                    OFFSET 2.33842 -0.294052 0.168128
                  }
                }
              }
              JOINT lPinky1
              {
                OFFSET 8.27202 -0.0477905 -0.4584
                CHANNELS 3 Zrotation Xrotation Yrotation
                JOINT lPinky2
                {
                  OFFSET 1.82734 -0.647385 -0.700984
                  CHANNELS 3 Zrotation Xrotation Yrotation
                  End Site
                  {
                    OFFSET 1.69225 -0.51767 -0.607171
                  }
                }
              }
            }
          }
        }
      }
    }
  }
  JOINT rButtock
  {
    OFFSET -8.77824 4.35084 1.2192
    CHANNELS 3 Zrotation Xrotation Yrotation
    JOINT rThigh
    {
      OFFSET 0 -1.70687 -2.19456
      CHANNELS 3 Zrotation Xrotation Yrotation
      JOINT rShin
      {
        OFFSET 0 -36.8199 0.73152
        CHANNELS 3 Zrotation Xrotation Yrotation
        JOINT rFoot
        {
          OFFSET 0.73152 -45.1104 -5.12064
          CHANNELS 3 Zrotation Xrotation Yrotation
          End Site
          {
            OFFSET -1.1221 -3.69964 12.103
          }
        }
      }
    }
  }
  JOINT lButtock
  {
    OFFSET 8.77824 4.35084 1.2192
    CHANNELS 3 Zrotation Xrotation Yrotation
    JOINT lThigh
    {
      OFFSET 0 -1.70687 -2.19456
      CHANNELS 3 Zrotation Xrotation Yrotation
      JOINT lShin
      {
        OFFSET 0 -36.8199 0.73152
        CHANNELS 3 Zrotation Xrotation Yrotation
        JOINT lFoot
        {
          OFFSET -0.73152 -45.1104 -5.12064
          CHANNELS 3 Zrotation Xrotation Yrotation
          End Site
          {
            OFFSET 1.1221 -3.69964 12.103
          }
        }
      }
    }
  }
}
MOTION
Frames:	6
Frame Time:	0.00833333
48.0384 85.1388 191.052 0.0 0.0 0.0 0.41059 -0.00336424 0.0117806 0.113459 -0.00539521 0.0196593 -2.30152e-15 0.0 -7.45443e-17 -6.87981e-15 3.18055e-15 -2.17421e-16 -0.0 0.0 0.0 -0.0 0.0 0.0 -1.0449e-15 1.3977e-17 9.93923e-17 -2.23099e-14 6.08778e-16 0.0 -4.18442e-13 1.35571e-13 -3.18055e-14 -4.80545e-12 -7.98617e-14 -1.65389e-13 -1.13335e-11 1.13068e-13 -3.84847e-13 -1.95723e-11 1.94014e-13 -6.69507e-13 -1.13275e-11 1.16488e-13 -3.94389e-13 7.73091 5.47488 0.417314 -1.13334e-11 1.13307e-13 -3.78486e-13 2.90554 0.965183 0.102902 -1.13224e-11 1.13605e-13 -3.84847e-13 10.2786 0.731801 0.0259123 -1.13353e-11 1.1291e-13 -3.78486e-13 2.22167 -0.733487 -0.20892 -1.1418e-15 1.41712e-17 -1.98785e-16 -2.62133e-14 3.16813e-16 -1.59028e-15 -4.19784e-13 -1.18078e-13 -3.18055e-15 -4.80653e-12 1.63003e-13 -1.7175e-13 -1.13357e-11 9.01536e-14 -3.84847e-13 -1.95707e-11 1.49486e-13 -6.58375e-13 -1.13438e-11 9.38264e-14 -3.75305e-13 -7.73091 5.47488 -0.417314 -1.13357e-11 9.05464e-14 -3.88028e-13 -2.90554 0.965183 -0.102902 -1.13423e-11 9.02482e-14 -3.84052e-13 -10.2786 0.731801 -0.0259123 -1.13381e-11 8.82604e-14 -3.94389e-13 -2.22167 -0.733487 0.20892 -2.03217e-16 0.0 -3.88251e-19 0.770603 -4.17183 -0.0656815 -0.00265486 2.00555 -0.0182702 -0.461828 2.16687 0.0961007 2.03217e-16 0.0 3.88251e-19 -0.143236 -2.55995 0.0260685 0.00716321 -0.914091 0.0621719 0.453775 3.47457 -0.121225
48.3212 83.5313 185.623 178.113 -2.2001 -152.134 -1.5366 -8.41121 -0.363849 1.00466 3.89128 -0.183716 0.37036 2.26084 -0.696917 1.40812 -5.96815 -1.22317 -0.0 0.0 0.0 -0.0 0.0 0.0 5.07375e-15 1.74742e-13 9.9039e-15 23.1487 1.72029 -1.08913 -4.70106 -2.2414 7.22469 6.82929e-05 0.183642 0.0258088 -8.12556e-10 1.57962e-09 -1.67815e-09 -1.40924e-09 2.73206e-09 -2.90084e-09 -8.12553e-10 1.57962e-09 -1.67816e-09 7.73091 5.47488 0.417314 -8.12557e-10 1.57962e-09 -1.67814e-09 2.90554 0.965183 0.102902 -8.12547e-10 1.57962e-09 -1.67815e-09 10.2786 0.731801 0.0259123 -8.12558e-10 1.57962e-09 -1.67814e-09 2.22167 -0.733487 -0.20892 4.959e-15 1.74741e-13 9.66008e-15 -21.2464 4.45042 -1.16921 2.65672 -1.0055 -4.34282 -0.00506092 1.5783 -0.221511 -1.04672e-09 6.738e-10 2.34818e-09 -1.79505e-09 1.16896e-09 4.06487e-09 -1.04673e-09 6.73805e-10 2.34819e-09 -7.73091 5.47488 -0.417314 -1.04672e-09 6.73801e-10 2.34817e-09 -2.90554 0.965183 -0.102902 -1.04673e-09 6.73801e-10 2.34818e-09 -10.2786 0.731801 -0.0259123 -1.04672e-09 6.73799e-10 2.34817e-09 -2.22167 -0.733487 0.20892 -2.03217e-16 0.0 -3.88251e-19 0.362845 -10.8905 2.12386 0.00243908 3.39001 0.0372327 -0.762318 -2.69677 -3.51851 2.03217e-16 0.0 3.88251e-19 0.278112 -9.6775 -2.78962 0.00554298 1.23714 0.0215864 0.521188 1.24718 1.42988
48.3301 83.5286 185.622 178.155 -2.2247 -152.139 -3.71913 -17.2944 -0.787808 1.97493 8.01165 -0.4012 0.826142 4.64651 -1.43349 2.60856 -12.2696 -2.55506 -0.0 0.0 0.0 -0.0 0.0 0.0 1.17204e-14 3.68155e-13 2.12172e-14 47.6943 3.53468 -2.24098 -9.06341 -4.49367 14.9006 -3.98373e-05 0.37905 0.0532719 -1.71051e-09 3.35239e-09 -3.5616e-09 -2.96668e-09 5.79823e-09 -6.15661e-09 -1.71051e-09 3.35239e-09 -3.56161e-09 7.73091 5.47488 0.417314 -1.71051e-09 3.35239e-09 -3.5616e-09 2.90554 0.965183 0.102902 -1.7105e-09 3.35239e-09 -3.5616e-09 10.2786 0.731801 0.0259123 -1.71051e-09 3.35239e-09 -3.5616e-09 2.22167 -0.733487 -0.20892 1.15878e-14 3.68154e-13 2.10308e-14 -43.5046 9.15287 -2.43107 5.30092 -2.04968 -8.93954 0.0028739 3.244 -0.45586 -2.20704e-09 1.437e-09 4.98086e-09 -3.78479e-09 2.49302e-09 8.62226e-09 -2.20705e-09 1.437e-09 4.98087e-09 -7.73091 5.47488 -0.417314 -2.20704e-09 1.437e-09 4.98086e-09 -2.90554 0.965183 -0.102902 -2.20705e-09 1.437e-09 4.98086e-09 -10.2786 0.731801 -0.0259123 -2.20705e-09 1.437e-09 4.98085e-09 -2.22167 -0.733487 0.20892 -2.03217e-16 0.0 -3.88251e-19 0.516801 -17.9487 4.58738 0.0048846 4.85194 0.096099 -1.75131 -7.78486 -7.40383 2.03217e-16 0.0 3.88251e-19 -0.0694808 -17.1328 -5.94758 0.00718325 3.51015 -0.0213492 0.723407 -1.10578 3.06771
48.3259 83.5253 185.655 178.131 -2.1837 -151.988 -5.79112 -25.2224 -1.21966 2.87152 11.6841 -0.601665 1.27703 6.7785 -2.10384 3.42752 -17.871 -3.83492 -0.0 0.0 0.0 -0.0 0.0 0.0 1.7311e-14 5.24197e-13 2.95129e-14 69.6429 5.15339 -3.27919 -12.4438 -6.29747 21.7956 -0.000291468 0.550926 0.0774295 -2.415e-09 4.73862e-09 -5.03368e-09 -4.18858e-09 8.19579e-09 -8.70119e-09 -2.415e-09 4.73862e-09 -5.03368e-09 7.73091 5.47488 0.417314 -2.415e-09 4.73862e-09 -5.03368e-09 2.90554 0.965183 0.102902 -2.415e-09 4.73862e-09 -5.03368e-09 10.2786 0.731801 0.0259123 -2.415e-09 4.73862e-09 -5.03367e-09 2.22167 -0.733487 -0.20892 1.71606e-14 5.24196e-13 2.93778e-14 -63.1819 13.3287 -3.59398 7.51674 -2.94726 -13.044 0.0215342 4.73461 -0.666556 -3.11749e-09 2.02122e-09 7.0453e-09 -5.34601e-09 3.50657e-09 1.21959e-08 -3.1175e-09 2.02123e-09 7.04531e-09 -7.73091 5.47488 -0.417314 -3.11749e-09 2.02122e-09 7.0453e-09 -2.90554 0.965183 -0.102902 -3.1175e-09 2.02122e-09 7.0453e-09 -10.2786 0.731801 -0.0259123 -3.11749e-09 2.02122e-09 7.04529e-09 -2.22167 -0.733487 0.20892 -2.03217e-16 0.0 -3.88251e-19 1.2159 -24.189 7.00556 0.00453786 6.15891 0.14888 -3.22631 -12.2182 -10.9878 2.03217e-16 0.0 3.88251e-19 -1.13792 -23.68 -9.07117 0.0114632 5.5396 -0.0598637 1.01764 -3.19643 4.5377
48.3316 83.525 185.653 178.157 -2.228 -151.995 -7.32485 -30.7668 -1.57334 3.52412 14.2371 -0.748918 1.60006 8.28001 -2.59638 3.86031 -21.7534 -4.82937 -0.0 0.0 0.0 -0.0 0.0 0.0 2.02614e-14 5.86812e-13 3.0265e-14 84.961 6.28991 -4.02221 -14.5276 -7.38817 26.6217 -0.00054073 0.663974 0.0933197 -2.63586e-09 5.15847e-09 -5.4773e-09 -4.57163e-09 8.92181e-09 -9.46781e-09 -2.63586e-09 5.15847e-09 -5.4773e-09 7.73091 5.47488 0.417314 -2.63586e-09 5.15847e-09 -5.4773e-09 2.90554 0.965183 0.102902 -2.63585e-09 5.15847e-09 -5.4773e-09 10.2786 0.731801 0.0259123 -2.63586e-09 5.15847e-09 -5.47729e-09 2.22167 -0.733487 -0.20892 2.00932e-14 5.86811e-13 3.01656e-14 -76.8075 16.2097 -4.42661 8.98044 -3.54442 -15.9029 0.0412608 5.78772 -0.816217 -3.40326e-09 2.158e-09 7.68915e-09 -5.83592e-09 3.74382e-09 1.33102e-08 -3.40326e-09 2.15801e-09 7.68916e-09 -7.73091 5.47488 -0.417314 -3.40326e-09 2.158e-09 7.68915e-09 -2.90554 0.965183 -0.102902 -3.40327e-09 2.158e-09 7.68914e-09 -10.2786 0.731801 -0.0259123 -3.40326e-09 2.158e-09 7.68914e-09 -2.22167 -0.733487 0.20892 -2.03217e-16 0.0 -3.88251e-19 2.0566 -28.5138 8.85853 0.00291477 7.07851 0.185901 -4.58954 -15.2186 -13.5713 2.03217e-16 0.0 3.88251e-19 -2.36645 -28.1727 -11.5158 0.0158834 6.96012 -0.0869611 1.2873 -4.64391 5.57722
48.3586 83.5233 185.675 178.279 -2.2958 -151.891 -7.96401 -32.9886 -1.74639 3.81645 15.2218 -0.817895 1.67931 8.90834 -2.83549 4.04335 -23.2619 -5.31078 -0.0 0.0 0.0 -0.0 0.0 0.0 1.87829e-14 4.99133e-13 1.81426e-14 90.9255 6.7701 -4.34692 -15.272 -7.75896 28.4838 -0.000625472 0.692628 0.0973476 -2.06649e-09 4.0081e-09 -4.22458e-09 -3.58409e-09 6.93187e-09 -7.30177e-09 -2.06649e-09 4.0081e-09 -4.22458e-09 7.73091 5.47488 0.417314 -2.06649e-09 4.0081e-09 -4.22458e-09 2.90554 0.965183 0.102902 -2.06649e-09 4.0081e-09 -4.22458e-09 10.2786 0.731801 0.0259123 -2.06649e-09 4.0081e-09 -4.22457e-09 2.22167 -0.733487 -0.20892 1.85899e-14 4.99134e-13 1.80618e-14 -82.1599 17.2845 -4.73227 9.52711 -3.76577 -17.0053 0.0509449 6.22785 -0.878994 -2.66222e-09 1.54289e-09 6.01064e-09 -4.56478e-09 2.67661e-09 1.04041e-08 -2.66222e-09 1.5429e-09 6.01066e-09 -7.73091 5.47488 -0.417314 -2.66222e-09 1.54289e-09 6.01064e-09 -2.90554 0.965183 -0.102902 -2.66222e-09 1.5429e-09 6.01064e-09 -10.2786 0.731801 -0.0259123 -2.66221e-09 1.54289e-09 6.01063e-09 -2.22167 -0.733487 0.20892 -2.03217e-16 0.0 -3.88251e-19 2.47072 -30.2682 9.60717 0.00214181 7.46018 0.200635 -5.19043 -16.3616 -14.5828 2.03217e-16 0.0 3.88251e-19 -2.97414 -29.9693 -12.579 0.017259 7.53679 -0.0978842 1.4092 -5.20508 6.00057
